<svg xmlns="http://www.w3.org/2000/svg" viewBox="0 0 64 64" role="img" aria-label="xolotl">
  <defs>
    <linearGradient id="body" x1="12" x2="52" y1="14" y2="52" gradientUnits="userSpaceOnUse">
      <stop stop-color="#37d7c1"/>
      <stop offset="1" stop-color="#c77aa9"/>
    </linearGradient>
    <linearGradient id="gill" x1="8" x2="56" y1="20" y2="42" gradientUnits="userSpaceOnUse">
      <stop stop-color="#22455f"/>
      <stop offset="1" stop-color="#543253"/>
    </linearGradient>
  </defs>
  <rect width="64" height="64" rx="16" fill="#111827"/>
  <path d="M15 26c-5-1-8-4-9-8 6-1 11 1 14 5" fill="none" stroke="url(#gill)" stroke-width="5" stroke-linecap="round"/>
  <path d="M49 26c5-1 8-4 9-8-6-1-11 1-14 5" fill="none" stroke="url(#gill)" stroke-width="5" stroke-linecap="round"/>
  <path d="M14 38c-5 2-8 5-9 10 7 0 12-3 15-7" fill="none" stroke="url(#gill)" stroke-width="5" stroke-linecap="round"/>
  <path d="M50 38c5 2 8 5 9 10-7 0-12-3-15-7" fill="none" stroke="url(#gill)" stroke-width="5" stroke-linecap="round"/>
  <path d="M14 20c0-7 6-12 18-12s18 5 18 12v18c0 10-8 18-18 18s-18-8-18-18V20Z" fill="url(#body)"/>
  <path d="M22 39c5 4 15 4 20 0" fill="none" stroke="#14343a" stroke-width="3" stroke-linecap="round"/>
  <circle cx="24" cy="28" r="3" fill="#07181c"/>
  <circle cx="40" cy="28" r="3" fill="#07181c"/>
  <path d="M30 33h4" stroke="#14343a" stroke-width="3" stroke-linecap="round"/>
</svg>
